{
  "accessors": [
    {
      "bufferView": 2,
      "componentType": 5126,
      "count": 65532,
      "max": [
        0.16668418049812317,
        0.4001753330230713,
        0.10824056714773178
      ],
      "min": [
        -0.2620617747306824,
        -0.09678196907043457,
        -0.7526743412017822
      ],
      "type": "VEC3"
    },
    {
      "bufferView": 2,
      "byteOffset": 786384,
      "componentType": 5126,
      "count": 65532,
      "max": [
        0.9999964237213135,
        0.9999616742134094,
        0.9987810254096985
      ],
      "min": [
        -0.9999986886978149,
        -0.9996257424354553,
        -0.999526858329773
      ],
      "type": "VEC3"
    },
    {
      "bufferView": 1,
      "componentType": 5126,
      "count": 65532,
      "max": [
        0.4761962890625,
        0.9508056640625
      ],
      "min": [
        0.0472412109375,
        0.5433349609375
      ],
      "type": "VEC2"
    },
    {
      "bufferView": 0,
      "componentType": 5125,
      "count": 138594,
      "type": "SCALAR"
    },
    {
      "bufferView": 2,
      "byteOffset": 1572768,
      "componentType": 5126,
      "count": 65532,
      "max": [
        0.24110491573810577,
        0.3627448081970215,
        0.735876739025116
      ],
      "min": [
        -0.2674197256565094,
        -0.399233341217041,
        -0.7524571418762207
      ],
      "type": "VEC3"
    },
    {
      "bufferView": 2,
      "byteOffset": 2359152,
      "componentType": 5126,
      "count": 65532,
      "max": [
        0.9999919533729553,
        0.9998263120651245,
        0.9977745413780212
      ],
      "min": [
        -0.9999494552612305,
        -0.9999563694000244,
        -0.9999696016311646
      ],
      "type": "VEC3"
    },
    {
      "bufferView": 1,
      "byteOffset": 524256,
      "componentType": 5126,
      "count": 65532,
      "max": [
        0.5172119140625,
        0.9781494140625
      ],
      "min": [
        0.0198974609375,
        0.5159912109375
      ],
      "type": "VEC2"
    },
    {
      "bufferView": 0,
      "byteOffset": 554376,
      "componentType": 5125,
      "count": 167541,
      "type": "SCALAR"
    },
    {
      "bufferView": 2,
      "byteOffset": 3145536,
      "componentType": 5126,
      "count": 65534,
      "max": [
        0.3952237367630005,
        0.03308868408203125,
        0.7799331545829773
      ],
      "min": [
        -0.38937392830848694,
        -0.45608675479888916,
        -0.33388546109199524
      ],
      "type": "VEC3"
    },
    {
      "bufferView": 2,
      "byteOffset": 3931944,
      "componentType": 5126,
      "count": 65534,
      "max": [
        0.9999818801879883,
        0.9998698830604553,
        0.9999948143959045
      ],
      "min": [
        -0.9999634027481079,
        -0.9999915957450867,
        -0.9999212622642517
      ],
      "type": "VEC3"
    },
    {
      "bufferView": 1,
      "byteOffset": 1048512,
      "componentType": 5126,
      "count": 65534,
      "max": [
        0.5230712890625,
        0.9996337890625
      ],
      "min": [
        0.0003662109375,
        0.4964599609375
      ],
      "type": "VEC2"
    },
    {
      "bufferView": 0,
      "byteOffset": 1224540,
      "componentType": 5125,
      "count": 247530,
      "type": "SCALAR"
    },
    {
      "bufferView": 2,
      "byteOffset": 4718352,
      "componentType": 5126,
      "count": 19119,
      "max": [
        0.2555270493030548,
        0.32134461402893066,
        0.44353339076042175
      ],
      "min": [
        -0.38916897773742676,
        -0.17319345474243164,
        -0.41378548741340637
      ],
      "type": "VEC3"
    },
    {
      "bufferView": 2,
      "byteOffset": 4947780,
      "componentType": 5126,
      "count": 19119,
      "max": [
        0.9999801516532898,
        0.9998263120651245,
        0.999756395816803
      ],
      "min": [
        -0.9997807741165161,
        -0.9990077614784241,
        -0.9990140199661255
      ],
      "type": "VEC3"
    },
    {
      "bufferView": 1,
      "byteOffset": 1572784,
      "componentType": 5126,
      "count": 19119,
      "max": [
        0.5113525390625,
        0.9859619140625
      ],
      "min": [
        0.0120849609375,
        0.5081787109375
      ],
      "type": "VEC2"
    },
    {
      "bufferView": 0,
      "byteOffset": 2214660,
      "componentType": 5125,
      "count": 41319,
      "type": "SCALAR"
    }
  ],
  "asset": {
    "extras": {
      "author": "otaru (https://sketchfab.com/otaru)",
      "license": "CC-BY-4.0 (http://creativecommons.org/licenses/by/4.0/)",
      "source": "https://sketchfab.com/3d-models/person-99ad5d56eb8b4b5e94354ba513ac23c3",
      "title": "Person"
    },
    "generator": "Sketchfab-12.66.0",
    "version": "2.0"
  },
  "bufferViews": [
    {
      "buffer": 0,
      "byteLength": 2379936,
      "name": "floatBufferViews",
      "target": 34963
    },
    {
      "buffer": 0,
      "byteLength": 1725736,
      "byteOffset": 2379936,
      "byteStride": 8,
      "name": "floatBufferViews",
      "target": 34962
    },
    {
      "buffer": 0,
      "byteLength": 5177208,
      "byteOffset": 4105672,
      "byteStride": 12,
      "name": "floatBufferViews",
      "target": 34962
    }
  ],
  "buffers": [
    {
      "byteLength": 9282880,
      "uri": "scene.bin"
    }
  ],
  "extensionsUsed": [
    "KHR_materials_unlit"
  ],
  "images": [
    {
      "uri": "textures/material_0_baseColor.jpeg"
    }
  ],
  "materials": [
    {
      "doubleSided": true,
      "extensions": {
        "KHR_materials_unlit": {}
      },
      "name": "material_0",
      "pbrMetallicRoughness": {
        "baseColorTexture": {
          "index": 0
        },
        "metallicFactor": 0.0
      }
    }
  ],
  "meshes": [
    {
      "name": "Object_0",
      "primitives": [
        {
          "attributes": {
            "NORMAL": 1,
            "POSITION": 0,
            "TEXCOORD_0": 2
          },
          "indices": 3,
          "material": 0,
          "mode": 4
        }
      ]
    },
    {
      "name": "Object_1",
      "primitives": [
        {
          "attributes": {
            "NORMAL": 5,
            "POSITION": 4,
            "TEXCOORD_0": 6
          },
          "indices": 7,
          "material": 0,
          "mode": 4
        }
      ]
    },
    {
      "name": "Object_2",
      "primitives": [
        {
          "attributes": {
            "NORMAL": 9,
            "POSITION": 8,
            "TEXCOORD_0": 10
          },
          "indices": 11,
          "material": 0,
          "mode": 4
        }
      ]
    },
    {
      "name": "Object_3",
      "primitives": [
        {
          "attributes": {
            "NORMAL": 13,
            "POSITION": 12,
            "TEXCOORD_0": 14
          },
          "indices": 15,
          "material": 0,
          "mode": 4
        }
      ]
    }
  ],
  "nodes": [
    {
      "children": [
        1
      ],
      "matrix": [
        1.0,
        0.0,
        0.0,
        0.0,
        0.0,
        2.220446049250313e-16,
        -1.0,
        0.0,
        0.0,
        1.0,
        2.220446049250313e-16,
        0.0,
        0.0,
        0.0,
        0.0,
        1.0
      ],
      "name": "Sketchfab_model"
    },
    {
      "children": [
        2,
        3,
        4,
        5
      ],
      "name": "model_mesh.obj.cleaner.gles"
    },
    {
      "mesh": 0,
      "name": "Object_2"
    },
    {
      "mesh": 1,
      "name": "Object_3"
    },
    {
      "mesh": 2,
      "name": "Object_4"
    },
    {
      "mesh": 3,
      "name": "Object_5"
    }
  ],
  "samplers": [
    {
      "magFilter": 9729,
      "minFilter": 9987,
      "wrapS": 10497,
      "wrapT": 10497
    }
  ],
  "scene": 0,
  "scenes": [
    {
      "name": "Sketchfab_Scene",
      "nodes": [
        0
      ]
    }
  ],
  "textures": [
    {
      "sampler": 0,
      "source": 0
    }
  ]
}
